<?xml version="1.0" encoding="UTF-8"?>
<svg version="1.1" xmlns="http://www.w3.org/2000/svg" width="120" height="80">
<path d="M0 0 C2.64 0 5.28 0 8 0 C8 7.26 8 14.52 8 22 C10.31 21.34 12.62 20.68 15 20 C15.33 13.4 15.66 6.8 16 0 C18.31 0 20.62 0 23 0 C23 4.95 23 9.9 23 15 C23.66 14.67 24.32 14.34 25 14 C26.98 14 28.96 14 31 14 C31 9.38 31 4.76 31 0 C33.31 0 35.62 0 38 0 C38.00386719 1.55460937 38.00386719 1.55460937 38.0078125 3.140625 C38.04534221 4.51045952 38.08448984 5.88025038 38.125 7.25 C38.12242188 7.93191406 38.11984375 8.61382812 38.1171875 9.31640625 C38.14779591 11.62639455 38.14779591 11.62639455 39 15 C41.83129844 17.23475757 41.83129844 17.23475757 45 19 C45.99 20.65 46.98 22.3 48 24 C48.33 16.08 48.66 8.16 49 0 C51.64 0 54.28 0 57 0 C57.495 7.92 57.495 7.92 58 16 C59.2375 14.47375 60.475 12.9475 61.75 11.375 C62.79414063 10.08722656 62.79414063 10.08722656 63.859375 8.7734375 C66.12003867 6.04315202 66.12003867 6.04315202 67.5859375 2.69921875 C70.38339139 -0.42867872 70.97992439 -0.44154249 74.9921875 -0.69140625 C76.95355935 -0.67946285 78.91494444 -0.63533127 80.875 -0.5625 C82.34646484 -0.55959961 82.34646484 -0.55959961 83.84765625 -0.55664062 C89.24225795 -0.45835841 93.4071145 -0.1234575 98 3 C100.1803075 6.27046125 100.68959439 8.1199299 101 12 C100.0625 14.6875 100.0625 14.6875 99 17 C99 17.99 99 18.98 99 20 C99.4846875 20.44730469 99.969375 20.89460938 100.46875 21.35546875 C103.14056365 24.22494208 102.51889138 27.52011154 102.4296875 31.26171875 C101.76491231 35.49814972 100.14466889 37.15482338 97 40 C89.95314805 43.52342598 77.58718518 42.26342143 70 41 C65.67564046 38.34793134 64.0611821 35.53077179 62 31 C60.68 29.02 59.36 27.04 58 25 C57.67 30.28 57.34 35.56 57 41 C54.36 41 51.72 41 49 41 C48.67 39.35 48.34 37.7 48 36 C47.01 35.67 46.02 35.34 45 35 C44.15625 32.8203125 44.15625 32.8203125 43.5 30.125 C42.51306333 26.0950086 42.08429809 25.08429809 39 22 C38.67 28.27 38.34 34.54 38 41 C35.69 41 33.38 41 31 41 C31 33.74 31 26.48 31 19 C28.69 19.66 26.38 20.32 24 21 C23.67 27.6 23.34 34.2 23 41 C20.69 41 18.38 41 16 41 C16 36.05 16 31.1 16 26 C13.69 26.66 11.38 27.32 9 28 C8.67 32.29 8.34 36.58 8 41 C5.36 41 2.72 41 0 41 C0.020625 39.99839844 0.04125 38.99679688 0.0625 37.96484375 C0.1992825 30.36348064 0.1992825 30.36348064 -2.77734375 23.62109375 C-4.18978099 22.47939493 -5.63786027 21.38011215 -7.12109375 20.33203125 C-9.68501068 18.51436873 -10.4013618 17.0680208 -11 14 C-11.1310163 11.30912684 -11.09147442 8.69849553 -11 6 C-9.35 6 -7.7 6 -6 6 C-5.83564453 6.90492187 -5.83564453 6.90492187 -5.66796875 7.828125 C-5.50941406 8.62734375 -5.35085937 9.4265625 -5.1875 10.25 C-5.03667969 11.03890625 -4.88585937 11.8278125 -4.73046875 12.640625 C-4.00052616 15.46673846 -4.00052616 15.46673846 -1 19 C-0.67 12.73 -0.34 6.46 0 0 Z M76 4 C73.83523505 6.30988406 71.87453012 8.79706169 69.875 11.25 C69.29878906 11.93191406 68.72257812 12.61382812 68.12890625 13.31640625 C67.58878906 13.98027344 67.04867187 14.64414062 66.4921875 15.328125 C65.99058105 15.9355957 65.48897461 16.54306641 64.97216797 17.16894531 C63.80557209 18.95685052 63.80557209 18.95685052 64.20581055 21.03173828 C65.52133203 24.2920316 67.76695711 26.89736125 69.9375 29.625 C70.39318359 30.21023437 70.84886719 30.79546875 71.31835938 31.3984375 C73.12654839 33.70698922 74.92478739 35.92478739 77 38 C77 26.78 77 15.56 77 4 C76.67 4 76.34 4 76 4 Z M84 7 C84 10.3 84 13.6 84 17 C86.97 16.34 89.94 15.68 93 15 C93 12.69 93 10.38 93 8 C90.04335481 6.5216774 87.25770263 6.93967217 84 7 Z M84 23 C84 26.96 84 30.92 84 35 C85.44375 34.855625 86.8875 34.71125 88.375 34.5625 C89.18710938 34.48128906 89.99921875 34.40007813 90.8359375 34.31640625 C93.04272805 34.10909886 93.04272805 34.10909886 95 33 C95.91950534 30.16485855 96.20936472 28.57977921 95.1875 25.75 C94.10600632 23.84925076 94.10600632 23.84925076 92 23 C90.62657169 22.9310528 89.24997898 22.91532292 87.875 22.9375 C85.956875 22.9684375 85.956875 22.9684375 84 23 Z M49 26 C50 29 50 29 50 29 Z M50 29 C50 30.65 50 32.3 50 34 C50.33 34 50.66 34 51 34 C51 32.35 51 30.7 51 29 C50.67 29 50.34 29 50 29 Z " fill="#000000" transform="translate(14,20)"/>
<path d="M0 0 C2.64 0 5.28 0 8 0 C8 7.26 8 14.52 8 22 C10.31 21.34 12.62 20.68 15 20 C15.33 13.4 15.66 6.8 16 0 C18.31 0 20.62 0 23 0 C23 4.95 23 9.9 23 15 C23.66 14.67 24.32 14.34 25 14 C26.98 14 28.96 14 31 14 C31 9.38 31 4.76 31 0 C33.31 0 35.62 0 38 0 C38.00386719 1.55460937 38.00386719 1.55460937 38.0078125 3.140625 C38.04534221 4.51045952 38.08448984 5.88025038 38.125 7.25 C38.12242188 7.93191406 38.11984375 8.61382812 38.1171875 9.31640625 C38.14779591 11.62639455 38.14779591 11.62639455 39 15 C41.83059737 17.3629054 41.83059737 17.3629054 45 19 C49.56330632 24.91996496 50.14147516 28.64329175 50 36 C48.35 35.67 46.7 35.34 45 35 C44.81824219 34.31292969 44.63648438 33.62585937 44.44921875 32.91796875 C44.19785156 32.01691406 43.94648437 31.11585937 43.6875 30.1875 C43.44386719 29.29417969 43.20023438 28.40085937 42.94921875 27.48046875 C42.06027829 24.65259648 42.06027829 24.65259648 39 22 C38.67 28.27 38.34 34.54 38 41 C35.69 41 33.38 41 31 41 C31 33.74 31 26.48 31 19 C28.69 19.66 26.38 20.32 24 21 C23.67 27.6 23.34 34.2 23 41 C20.69 41 18.38 41 16 41 C16 36.05 16 31.1 16 26 C13.69 26.66 11.38 27.32 9 28 C8.67 32.29 8.34 36.58 8 41 C5.36 41 2.72 41 0 41 C0.020625 39.99839844 0.04125 38.99679688 0.0625 37.96484375 C0.1992825 30.36348064 0.1992825 30.36348064 -2.77734375 23.62109375 C-4.18978099 22.47939493 -5.63786027 21.38011215 -7.12109375 20.33203125 C-9.68501068 18.51436873 -10.4013618 17.0680208 -11 14 C-11.1310163 11.30912684 -11.09147442 8.69849553 -11 6 C-9.35 6 -7.7 6 -6 6 C-5.83564453 6.90492187 -5.83564453 6.90492187 -5.66796875 7.828125 C-5.50941406 8.62734375 -5.35085937 9.4265625 -5.1875 10.25 C-5.03667969 11.03890625 -4.88585937 11.8278125 -4.73046875 12.640625 C-4.00052616 15.46673846 -4.00052616 15.46673846 -1 19 C-0.67 12.73 -0.34 6.46 0 0 Z " fill="#C6151D" transform="translate(14,20)"/>
<path d="M0 0 C2.31 0 4.62 0 7 0 C7.00257812 1.03640625 7.00515625 2.0728125 7.0078125 3.140625 C7.04534221 4.51045952 7.08448984 5.88025038 7.125 7.25 C7.12242188 7.93191406 7.11984375 8.61382812 7.1171875 9.31640625 C7.14779591 11.62639455 7.14779591 11.62639455 8 15 C10.83059737 17.3629054 10.83059737 17.3629054 14 19 C18.56330632 24.91996496 19.14147516 28.64329175 19 36 C17.35 35.67 15.7 35.34 14 35 C13.72736328 33.96939453 13.72736328 33.96939453 13.44921875 32.91796875 C13.19785156 32.01691406 12.94648437 31.11585937 12.6875 30.1875 C12.44386719 29.29417969 12.20023438 28.40085937 11.94921875 27.48046875 C11.06027829 24.65259648 11.06027829 24.65259648 8 22 C7.67 28.27 7.34 34.54 7 41 C4.69 41 2.38 41 0 41 C0 33.74 0 26.48 0 19 C-2.64 19.66 -5.28 20.32 -8 21 C-8 19.02 -8 17.04 -8 15 C-6 14 -6 14 0 14 C0 9.38 0 4.76 0 0 Z " fill="#C6151D" transform="translate(45,20)"/>
<path d="M0 0 C2.31 0 4.62 0 7 0 C7 13.53 7 27.06 7 41 C4.69 41 2.38 41 0 41 C0 27.47 0 13.94 0 0 Z " fill="#020000" transform="translate(30,20)"/>
<path d="M0 0 C2.64 0 5.28 0 8 0 C8 7.59 8 15.18 8 23 C5.69 22.67 3.38 22.34 1 22 C-0.20029908 19.59940183 -0.11459743 18.10639351 -0.09765625 15.4296875 C-0.09443359 14.53378906 -0.09121094 13.63789062 -0.08789062 12.71484375 C-0.07951172 11.77769531 -0.07113281 10.84054688 -0.0625 9.875 C-0.05798828 8.93011719 -0.05347656 7.98523438 -0.04882812 7.01171875 C-0.03702357 4.67441613 -0.02055759 2.33723939 0 0 Z " fill="#020000" transform="translate(14,20)"/>
<path d="M0 0 C6 1 6 1 7 2 C7.08685603 3.56172745 7.10702219 5.12729344 7.09765625 6.69140625 C7.09443359 7.63564453 7.09121094 8.57988281 7.08789062 9.55273438 C7.07951172 10.54595703 7.07113281 11.53917969 7.0625 12.5625 C7.05798828 13.55958984 7.05347656 14.55667969 7.04882812 15.58398438 C7.03700007 18.05604849 7.02051849 20.52799518 7 23 C4.69 23 2.38 23 0 23 C0 15.41 0 7.82 0 0 Z " fill="#020000" transform="translate(45,38)"/>
<path d="M0 0 C2.64 0.33 5.28 0.66 8 1 C8 5.62 8 10.24 8 15 C5.36 15 2.72 15 0 15 C0 10.05 0 5.1 0 0 Z " fill="#010000" transform="translate(14,46)"/>
<path d="M0 0 C2.31 0 4.62 0 7 0 C7 4.95 7 9.9 7 15 C4.69 14.67 2.38 14.34 0 14 C0 9.38 0 4.76 0 0 Z " fill="#010000" transform="translate(45,20)"/>
</svg>
